<?xml version="1.0" encoding="UTF-8" standalone="no"?>
<!-- Created with Inkscape (http://www.inkscape.org/) -->

<svg
   width="73.416458mm"
   height="74.449188mm"
   viewBox="0 0 73.416458 74.449188"
   version="1.1"
   id="svg5"
   inkscape:version="1.1 (ce6663b3b7, 2021-05-25)"
   sodipodi:docname="ballon.svg"
   xmlns:inkscape="http://www.inkscape.org/namespaces/inkscape"
   xmlns:sodipodi="http://sodipodi.sourceforge.net/DTD/sodipodi-0.dtd"
   xmlns="http://www.w3.org/2000/svg"
   xmlns:svg="http://www.w3.org/2000/svg">
  <sodipodi:namedview
     id="namedview7"
     pagecolor="#ffffff"
     bordercolor="#666666"
     borderopacity="1.0"
     inkscape:pageshadow="2"
     inkscape:pageopacity="0.0"
     inkscape:pagecheckerboard="0"
     inkscape:document-units="mm"
     showgrid="false"
     fit-margin-top="0"
     fit-margin-left="0"
     fit-margin-right="0"
     fit-margin-bottom="0"
     inkscape:zoom="3.1108586"
     inkscape:cx="78.91712"
     inkscape:cy="145.94042"
     inkscape:window-width="2560"
     inkscape:window-height="1403"
     inkscape:window-x="2560"
     inkscape:window-y="0"
     inkscape:window-maximized="1"
     inkscape:current-layer="layer1" />
  <defs
     id="defs2" />
  <g
     inkscape:label="Layer 1"
     inkscape:groupmode="layer"
     id="layer1"
     transform="translate(110.73955,-102.11757)">
    <path
       style="fill:#000000;stroke-width:0.0254"
       d="m -89.101837,173.6023 c -5.366863,-2.27703 -10.183185,-5.83349 -13.928553,-10.30164 3.244918,1.98225 5.702667,5.5989 9.318506,7.36688 1.789262,0.89566 7.346371,4.62438 4.407646,0.005 -1.157181,-2.10282 -2.682642,-5.70736 -0.290047,-3.13408 -0.3008,2.16634 4.823997,1.12852 1.75015,-0.62083 4.358737,-0.0716 8.75009,0.16515 13.087539,-0.12937 1.870831,-2.72876 2.462438,-6.39268 3.784534,-9.49709 1.521959,-3.1321 2.751919,-6.7185 -0.868221,-8.96033 -1.898822,-1.84022 -3.659932,-4.62919 -5.125147,-5.87843 -1.866463,-2.50146 -4.103409,-5.47094 -7.581517,-3.6865 -2.424545,0.16294 -6.356368,1.79482 -8.006812,0.99576 3.642308,-1.04046 7.472504,-1.13166 11.123812,-2.16678 1.794084,-0.77055 5.681889,-0.0346 6.239234,-1.61005 -1.622752,-1.1296 -7.188901,2.96413 -4.421399,-0.97267 1.738036,-3.26438 2.992358,-8.40021 6.940434,-7.76356 -1.811946,0.20139 -4.334788,0.68755 -2.2047,-1.72308 0.565794,-1.44533 2.152493,-2.95391 0.692766,-4.44969 -0.896314,-2.31761 -5.305247,-6.34079 -4.207268,-7.55739 2.09135,2.74203 3.623654,5.99747 5.969155,8.48987 5.122206,1.38198 10.345527,2.43662 15.541802,3.52901 3.436145,-0.96547 4.840777,-5.07545 7.362176,-7.42341 0.404202,-2.86753 -3.157351,-4.87568 -4.357087,-7.40036 -1.857535,-3.84502 -6.0614,-5.15099 -10.045446,-5.23346 -3.131736,0.0877 -6.806431,-1.74509 -9.579105,-0.0164 -1.855397,1.45996 -1.98485,1.95022 -3.956956,3.83968 -2.406573,0.88679 -1.505778,3.1084 -1.610573,3.7879 -2.381306,-2.09772 -5.933784,-0.22503 -8.881449,-0.0258 -1.8929,0.68309 -2.541717,-0.8065 -4.650268,-0.2738 0.576982,-1.3677 -3.964988,-0.50156 -1.900151,0.14133 3.388334,-0.46292 -3.992274,1.337 -1.610825,-1.65998 0.112679,-2.10653 4.594884,-1.28284 4.650578,-2.39177 -2.901448,0.36116 -5.366916,1.77496 -7.072903,1.96401 10.117247,-8.7094 25.270349,-11.219953 37.704924,-6.07971 14.605058,5.49315 24.48713,21.03466 23.426022,36.57554 0.02581,2.49635 -0.767929,4.60295 -0.884887,5.7406 -4.622586,0.94541 2.095069,-4.46544 0.323085,-7.0443 0.04613,-5.90132 -1.023231,-12.06038 -4.114239,-17.14744 -2.518277,-1.13087 -5.735794,-7.31803 -7.794298,-3.2985 -1.573973,2.8365 -5.796494,4.90186 -5.085445,8.47601 1.298773,5.16052 2.081266,10.48426 3.71526,15.54019 0.869052,1.38159 6.154738,5.88979 2.288445,3.33225 -2.299623,-3.74597 -5.933573,-1.04659 -8.841774,0.24057 -1.577876,0.70703 -3.111814,1.60494 -4.921416,1.29963 -2.08739,-0.35818 -3.27711,0.9637 -0.456626,0.86821 -1.312592,1.04857 -6.414218,2.15175 -6.336513,5.91712 -1.432463,3.93505 -2.859343,7.87228 -4.258826,11.81918 3.242037,1.73495 6.468292,3.50444 9.759032,5.14504 3.55262,-0.77833 6.789133,-2.88713 10.214285,-4.17412 4.081764,-0.78762 5.829843,-4.26877 6.931666,-7.89516 0.4567,-3.10149 4.724714,-6.83324 2.127776,-9.6209 -1.199555,-0.7155 -3.455958,-3.23958 -0.947755,-1.60886 2.112534,3.1394 3.511953,0.93716 5.094073,-0.97219 4.60841,-1.53434 0.23922,4.81945 -0.114137,6.84329 -6.033451,13.6191 -20.854999,22.64636 -35.728372,21.69665 -4.354579,-0.20802 -8.65055,-1.21555 -12.670185,-2.89582 z m 16.3806,-2.76191 c 0.206591,-0.25564 -0.782628,-0.20602 0,0 z m 9.33683,3.41626 c 4.00172,-1.23542 7.757183,-3.23627 11.05493,-5.81271 -2.67241,0.21241 -5.087758,2.24378 -7.664881,3.07225 -0.962748,0.49586 -4.591263,1.70381 -3.390049,2.74046 z m 18.686791,-16.91014 c 1.733579,1.07386 3.727768,-0.51811 0.730206,-0.47368 -0.440579,-0.15403 -2.455626,0.24186 -0.730206,0.47368 z m -31.120751,-16.10178 c 1.091059,-0.53708 -1.220819,-0.0951 0,0 z m 13.659622,1.87545 c 0.793447,-0.86353 -1.640737,-0.38113 0,0 z m 5.766818,2.09162 c 2.030093,0.36001 4.097452,-1.34271 1.796977,-1.65498 1.780924,1.80263 -3.38731,0.66972 -1.796977,1.65498 z m -20.882476,-12.74899 c 2.98419,0.21219 -2.126384,-0.58085 0,0 z m 2.424477,-0.003 c 2.502667,0.13976 1.617241,-0.36319 -0.496479,-0.1431 l 0.496477,0.14299 z m 0.574887,-5.50591 c 0.710463,-0.36214 -0.906667,-0.0766 0,0 z m -18.603663,-18.64251 c 0.471482,-0.0885 -0.948787,-0.18795 0,0 z m 10.161223,3.37953 c 0.150435,-0.16399 -0.491089,0.0396 0,0 z m -5.674917,-3.428 c 2.371073,-0.46876 -1.367953,0.0818 0,0 z m -1.350139,-0.82474 c 0.620809,-0.19142 -0.852155,0.0119 0,0 z m 4.249384,-1.07087 c 2.71359,-0.67349 -1.286304,-0.0717 -1.9e-5,-1e-5 z m 12.907323,-2.59906 c 2.827495,0.29809 7.091087,1.07419 8.989077,1.05658 -3.535621,-1.62183 -8.086738,-2.29356 -11.588836,-2.05243 0.848443,0.3727 1.617036,1.02936 2.59977,0.99582 z m -18.779016,62.98939 c -1.699044,-1.72283 0.271242,-0.0781 0,0 z m -0.06806,-0.84307 c -3.157077,-1.4459 -5.374711,-4.33031 -7.502015,-6.9816 2.823053,1.55466 4.654868,5.1162 7.593291,6.92186 l 0.227265,0.22183 -0.318559,-0.16205 z m -16.166846,-9.4183 c -1.22598,-1.28675 -0.84179,-3.54027 0.11645,-0.97974 0.10747,0.52583 1.23818,1.69254 -0.11645,0.97974 z m 7.830129,1.30555 c -1.465339,-3.29876 -6.610109,-3.29094 -6.056109,-7.19349 -1.70499,0.007 -2.1231,-1.33111 -0.87338,-1.49996 -0.93989,-0.84948 -6.03125,-0.3215 -3.18542,-2.63109 1.1429,0.35797 6.24072,1.16995 2.53225,-0.1821 -3.72874,-1.53255 1.58926,-0.4032 2.10599,-1.58611 3.70345,0.0354 2.59145,-3.63197 0.83256,-5.18504 0.10221,-1.95128 3.20574,0.66005 0.76867,-1.00524 1.13444,-1.91978 2.3639,-2.22731 3.12714,-1.53678 0.924451,0.41709 3.477857,3.69039 0.40717,3.53819 -1.76073,-1.03251 -1.80351,-0.92445 -0.2995,0.0709 -3.49522,0.61661 2.891458,3.48903 1.802819,0.97953 0.827684,-0.32812 3.652451,-1.55016 5.175775,-1.27965 -2.300898,0.15655 -5.986385,1.15941 -5.609833,4.78043 -0.24581,3.67561 -3.395921,7.81773 -1.157921,11.21846 0.409844,0.60328 2.030653,2.45862 0.429789,1.51197 z m -2.838869,-21.94259 c 0.1362,-1.80152 -5.89197,-1.86177 -3.23862,-2.78925 2.06941,0.41791 4.89,-0.9784 5.21762,1.96851 1.314031,2.15953 0.59677,2.17618 -1.64678,1.09328 -0.20307,0.0309 -0.2455,-0.15013 -0.33222,-0.27252 z m -4.24539,-3.81341 c -0.59054,-1.68217 -0.18537,-2.19885 1.28009,-2.99546 -1.00338,0.008 1.93518,-2.72426 2.49753,-3.39496 -0.89873,1.69608 0.44042,5.19638 1.38278,7.16507 -1.43535,-0.26243 -4.60935,0.42785 -5.1604,-0.77465 z m -3.08004,-4.06777 c 0.21725,-2.40039 1.01856,0.0421 0,0 z m 0.67574,-1.38027 c 0.19026,-0.12632 -0.0498,0.18436 0,0 z m 6.00351,-1.18479 c 1.01338,-2.09558 1.97387,-1.63872 0.91917,-0.2911 -0.10335,0.16942 -0.86734,0.64887 -0.91917,0.2911 z m 1.11419,-1.94165 c 1.37554,-1.68801 2.825036,-5.38144 4.689588,-7.82967 0.239059,-2.85587 4.76124,-2.40127 5.55094,-2.55086 2.884494,0.88986 -4.083652,0.55776 -4.59722,2.27167 -1.750687,2.60185 -3.185142,5.62981 -4.996208,8.07891 -0.1432,-0.005 -0.57554,0.21178 -0.6471,0.0299 z m -4.46044,-2.25006 c -1.09346,-1.02001 1.68234,-1.11387 -2e-5,2e-4 z m 1.58734,-2.56856 c -0.24139,-0.98725 1.38027,-0.17196 0,0 z m 6.126938,-6.91812 c 0.909917,-1.35302 0.354942,0.50282 0,0 z"
       id="path324"
       sodipodi:nodetypes="sssscsscsscssscscssscccccssccccssssscsscscccsssscsssscscccsscssscccssssssssssssscsssscsccssscsssssscccscssscssscsscssssscssssssssssccsccssscsscscccsscccssscssssssccscsccsscssssssccscsscssccscssscsscssssssssssscssccscssscssccsssccccsssssccssssssccsscsssssssccsscccscsssssscsssssscssssssssscssssscsscccssccscscssscsscsscccscccsscsccsssccscsccsssssccccscscccssccscccccssssscssssssccsssscccsccscccccssssscsccsccccsscccsscccsscccsssssccscscsssssscsscccssccsccssccccccsscccssscsscscccssssssccscccsscsssccsscscsscscssscccscsscscssssscssscscscsssssssssssssscscsssccssscsccscssscscssccsccccsccssssccscccsssscsccsscssscsccccsssccsssscsccccsccssssscccsssscccscssscccscsssscsccscscscccssccssscsssscccssscccccsccsssccccccsccccccscccssssssssscsscscsssscccsscscsssscsscscccccsssccsccssssscssssscccs" />
  </g>
</svg>
